# Blender v2.80 (sub 45) OBJ File: 'Lab Furniture & Equipment.blend'
# www.blender.org
mtllib Desk.mtl
o BottomBackPanel.003_Cube.047
v 0.000000 0.000000 3.900000
v 0.000000 2.000000 3.900000
v 0.000000 0.000000 -3.900000
v 0.000000 2.000000 -3.900000
v 0.100000 0.000000 3.900000
v 0.100000 2.000000 3.900000
v 0.100000 0.000000 -3.900000
v 0.100000 2.000000 -3.900000
vt 0.375000 0.000000
vt 0.625000 0.000000
vt 0.625000 0.250000
vt 0.375000 0.250000
vt 0.625000 0.500000
vt 0.375000 0.500000
vt 0.625000 0.750000
vt 0.375000 0.750000
vt 0.625000 1.000000
vt 0.375000 1.000000
vt 0.125000 0.500000
vt 0.125000 0.750000
vt 0.875000 0.500000
vt 0.875000 0.750000
vn -1.0000 0.0000 0.0000
vn 0.0000 0.0000 -1.0000
vn 1.0000 0.0000 0.0000
vn 0.0000 0.0000 1.0000
vn 0.0000 -1.0000 0.0000
vn 0.0000 1.0000 0.0000
usemtl None
s off
f 1/1/1 2/2/1 4/3/1 3/4/1
f 3/4/2 4/3/2 8/5/2 7/6/2
f 7/6/3 8/5/3 6/7/3 5/8/3
f 5/8/4 6/7/4 2/9/4 1/10/4
f 3/11/5 7/6/5 5/8/5 1/12/5
f 8/5/6 4/13/6 2/14/6 6/7/6
o BottomLeftPanel.003_Cube.052
v 2.000000 0.000000 4.100000
v 2.000000 2.000000 4.100000
v 0.000000 0.000000 4.100000
v 0.000000 2.000000 4.100000
v 2.000000 0.000000 3.900000
v 2.000000 2.000000 3.900000
v 0.000000 0.000000 3.900000
v 0.000000 2.000000 3.900000
vt 0.375000 0.000000
vt 0.625000 0.000000
vt 0.625000 0.250000
vt 0.375000 0.250000
vt 0.625000 0.500000
vt 0.375000 0.500000
vt 0.625000 0.750000
vt 0.375000 0.750000
vt 0.625000 1.000000
vt 0.375000 1.000000
vt 0.125000 0.500000
vt 0.125000 0.750000
vt 0.875000 0.500000
vt 0.875000 0.750000
vn 0.0000 0.0000 1.0000
vn -1.0000 0.0000 0.0000
vn -0.0000 0.0000 -1.0000
vn 1.0000 0.0000 0.0000
vn 0.0000 -1.0000 0.0000
vn 0.0000 1.0000 0.0000
usemtl None
s off
f 9/15/7 10/16/7 12/17/7 11/18/7
f 11/18/8 12/17/8 16/19/8 15/20/8
f 15/20/9 16/19/9 14/21/9 13/22/9
f 13/22/10 14/21/10 10/23/10 9/24/10
f 11/25/11 15/20/11 13/22/11 9/26/11
f 16/19/12 12/27/12 10/28/12 14/21/12
o BottomRightPanel.003_Cube.054
v 2.000000 0.000000 -3.900000
v 2.000000 2.000000 -3.900000
v 0.000000 0.000000 -3.900000
v 0.000000 2.000000 -3.900000
v 2.000000 0.000000 -4.100000
v 2.000000 2.000000 -4.100000
v 0.000000 0.000000 -4.100000
v 0.000000 2.000000 -4.100000
vt 0.375000 0.000000
vt 0.625000 0.000000
vt 0.625000 0.250000
vt 0.375000 0.250000
vt 0.625000 0.500000
vt 0.375000 0.500000
vt 0.625000 0.750000
vt 0.375000 0.750000
vt 0.625000 1.000000
vt 0.375000 1.000000
vt 0.125000 0.500000
vt 0.125000 0.750000
vt 0.875000 0.500000
vt 0.875000 0.750000
vn 0.0000 0.0000 1.0000
vn -1.0000 0.0000 0.0000
vn 0.0000 0.0000 -1.0000
vn 1.0000 0.0000 0.0000
vn 0.0000 -1.0000 0.0000
vn 0.0000 1.0000 0.0000
usemtl None
s off
f 17/29/13 18/30/13 20/31/13 19/32/13
f 19/32/14 20/31/14 24/33/14 23/34/14
f 23/34/15 24/33/15 22/35/15 21/36/15
f 21/36/16 22/35/16 18/37/16 17/38/16
f 19/39/17 23/34/17 21/36/17 17/40/17
f 24/33/18 20/41/18 18/42/18 22/35/18
o Plane.001_Plane.016
v 1.950000 2.000000 -2.270000
v 1.950000 0.000000 -2.270000
v 1.950000 2.000000 -3.910000
v 1.950000 0.000000 -3.910000
v 1.950000 1.800000 -2.270000
v 1.950000 0.200000 -2.270000
v 1.950000 0.200000 -3.910000
v 1.950000 1.800000 -3.910000
v 1.850000 2.000000 -2.270000
v 1.850000 0.000000 -2.270000
v 1.850000 2.000000 -3.910000
v 1.850000 0.000000 -3.910000
v 1.850000 1.800000 -2.270000
v 1.850000 0.200000 -2.270000
v 1.850000 0.200000 -3.910000
v 1.850000 1.800000 -3.910000
vt 0.000000 0.000000
vt 0.100000 0.000000
vt 0.100000 1.000000
vt 0.000000 1.000000
vt 0.900000 1.000000
vt 0.900000 0.000000
vt 1.000000 0.000000
vt 1.000000 1.000000
vt 0.000000 0.000000
vt 0.000000 1.000000
vt 0.100000 1.000000
vt 0.100000 0.000000
vt 0.900000 1.000000
vt 1.000000 1.000000
vt 1.000000 0.000000
vt 0.900000 0.000000
vn 1.0000 0.0000 0.0000
vn -1.0000 0.0000 0.0000
vn 0.0000 1.0000 0.0000
vn 0.0000 0.0000 1.0000
vn 0.0000 -1.0000 0.0000
vn 0.0000 0.0000 -1.0000
usemtl None
s off
f 25/43/19 29/44/19 32/45/19 27/46/19
f 31/47/19 30/48/19 26/49/19 28/50/19
f 33/51/20 35/52/20 40/53/20 37/54/20
f 39/55/20 36/56/20 34/57/20 38/58/20
f 25/43/21 27/46/21 35/52/21 33/51/21
f 26/49/22 30/48/22 38/58/22 34/57/22
f 28/50/23 26/49/23 34/57/23 36/56/23
f 27/46/24 32/45/24 40/53/24 35/52/24
f 29/44/22 25/43/22 33/51/22 37/54/22
f 31/47/24 28/50/24 36/56/24 39/55/24
f 30/48/21 31/47/21 39/55/21 38/58/21
f 32/45/23 29/44/23 37/54/23 40/53/23
o BottomLeftPanel.004_Cube.071
v 2.000000 0.000000 -2.080000
v 2.000000 2.000000 -2.080000
v 0.000000 0.000000 -2.080000
v 0.000000 2.000000 -2.080000
v 2.000000 0.000000 -2.280000
v 2.000000 2.000000 -2.280000
v 0.000000 0.000000 -2.280000
v 0.000000 2.000000 -2.280000
vt 0.375000 0.000000
vt 0.625000 0.000000
vt 0.625000 0.250000
vt 0.375000 0.250000
vt 0.625000 0.500000
vt 0.375000 0.500000
vt 0.625000 0.750000
vt 0.375000 0.750000
vt 0.625000 1.000000
vt 0.375000 1.000000
vt 0.125000 0.500000
vt 0.125000 0.750000
vt 0.875000 0.500000
vt 0.875000 0.750000
vn 0.0000 0.0000 1.0000
vn -1.0000 0.0000 0.0000
vn -0.0000 0.0000 -1.0000
vn 1.0000 0.0000 0.0000
vn 0.0000 -1.0000 0.0000
vn 0.0000 1.0000 0.0000
usemtl None
s off
f 41/59/25 42/60/25 44/61/25 43/62/25
f 43/62/26 44/61/26 48/63/26 47/64/26
f 47/64/27 48/63/27 46/65/27 45/66/27
f 45/66/28 46/65/28 42/67/28 41/68/28
f 43/69/29 47/64/29 45/66/29 41/70/29
f 48/63/30 44/71/30 42/72/30 46/65/30
