# Blender v2.80 (sub 45) OBJ File: 'Lab Furniture & Equipment.blend'
# www.blender.org
mtllib Screen.mtl
o Plane.004_Plane.019
v 0.112044 0.632385 0.700000
v 0.023586 0.654500 0.638080
v 0.098206 0.632657 0.699238
v 0.084709 0.633467 0.696969
v 0.071885 0.634795 0.693251
v 0.060050 0.636609 0.688174
v 0.049495 0.638862 0.681864
v 0.040480 0.641501 0.674475
v 0.033227 0.644460 0.666191
v 0.027915 0.647666 0.657214
v 0.024675 0.651040 0.647766
v 0.112044 1.132385 0.700000
v 0.023586 1.110271 0.638080
v 0.098206 1.132113 0.699238
v 0.084709 1.131303 0.696969
v 0.071885 1.129975 0.693251
v 0.060050 1.128162 0.688174
v 0.049495 1.125908 0.681864
v 0.040480 1.123269 0.674475
v 0.033227 1.120310 0.666191
v 0.027915 1.117104 0.657214
v 0.024675 1.113730 0.647766
v 0.023586 0.654500 -0.638080
v 0.112044 0.632385 -0.700000
v 0.024675 0.651040 -0.647766
v 0.027915 0.647666 -0.657214
v 0.033227 0.644460 -0.666191
v 0.040480 0.641501 -0.674475
v 0.049495 0.638862 -0.681864
v 0.060050 0.636609 -0.688174
v 0.071885 0.634795 -0.693251
v 0.084709 0.633467 -0.696969
v 0.098206 0.632657 -0.699238
v 0.112044 1.132385 -0.700000
v 0.023586 1.110271 -0.638080
v 0.098206 1.132113 -0.699238
v 0.084709 1.131303 -0.696969
v 0.071885 1.129975 -0.693251
v 0.060050 1.128162 -0.688174
v 0.049495 1.125908 -0.681864
v 0.040480 1.123269 -0.674475
v 0.033227 1.120310 -0.666191
v 0.027915 1.117104 -0.657214
v 0.024675 1.113730 -0.647766
v 0.112125 0.634153 0.695051
v 0.033577 0.654573 0.637873
v 0.101421 0.634331 0.694551
v 0.088700 0.635088 0.692431
v 0.077518 0.636256 0.689162
v 0.067011 0.637878 0.684621
v 0.057483 0.639926 0.678887
v 0.049234 0.642355 0.672083
v 0.042532 0.645107 0.664378
v 0.037593 0.648111 0.655968
v 0.034578 0.651286 0.647077
v 0.112125 1.130617 0.695051
v 0.033577 1.110197 0.637873
v 0.101421 1.130439 0.694551
v 0.088700 1.129682 0.692431
v 0.077518 1.128514 0.689162
v 0.067011 1.126892 0.684621
v 0.057483 1.124845 0.678887
v 0.049234 1.122415 0.672083
v 0.042532 1.119663 0.664378
v 0.037593 1.116659 0.655968
v 0.034578 1.113484 0.647077
v 0.033577 0.654573 -0.637873
v 0.112125 0.634153 -0.695051
v 0.034578 0.651286 -0.647077
v 0.037593 0.648111 -0.655968
v 0.042532 0.645107 -0.664378
v 0.049234 0.642355 -0.672083
v 0.057483 0.639926 -0.678887
v 0.067011 0.637878 -0.684621
v 0.077518 0.636256 -0.689162
v 0.088700 0.635088 -0.692431
v 0.101421 0.634331 -0.694551
v 0.112125 1.130617 -0.695051
v 0.033577 1.110197 -0.637873
v 0.101421 1.130439 -0.694551
v 0.088700 1.129682 -0.692431
v 0.077518 1.128514 -0.689162
v 0.067011 1.126892 -0.684621
v 0.057483 1.124845 -0.678887
v 0.049234 1.122415 -0.672083
v 0.042532 1.119663 -0.664378
v 0.037593 1.116659 -0.655968
v 0.034578 1.113484 -0.647077
vt 0.044229 0.044229
vt 0.955771 0.044229
vt 0.955771 0.955771
vt 0.044229 0.955771
vt 0.000272 0.999728
vt 0.000272 0.000272
vt 0.001082 0.001082
vt 0.001082 0.998918
vt 0.002410 0.002410
vt 0.002410 0.997590
vt 0.004223 0.004223
vt 0.004223 0.995777
vt 0.006477 0.006477
vt 0.006477 0.993523
vt 0.018232 0.018232
vt 0.018232 0.981768
vt 0.024149 0.024149
vt 0.024149 0.975851
vt 0.030561 0.030561
vt 0.030561 0.969439
vt 0.037310 0.037310
vt 0.037310 0.962690
vt 0.999728 0.000272
vt 0.998918 0.001082
vt 0.997590 0.002410
vt 0.995777 0.004223
vt 0.993523 0.006477
vt 0.981768 0.018232
vt 0.975851 0.024149
vt 0.969439 0.030561
vt 0.962690 0.037310
vt 0.999728 0.999728
vt 0.998918 0.998918
vt 0.997590 0.997590
vt 0.995777 0.995777
vt 0.993523 0.993523
vt 0.981768 0.981768
vt 0.975851 0.975851
vt 0.969439 0.969439
vt 0.962690 0.962690
vt 0.044229 0.044229
vt 0.044229 0.955771
vt 0.955771 0.955771
vt 0.955771 0.044229
vt 0.000272 0.999728
vt 0.001082 0.998918
vt 0.001082 0.001082
vt 0.000272 0.000272
vt 0.002410 0.997590
vt 0.002410 0.002410
vt 0.004223 0.995777
vt 0.004223 0.004223
vt 0.006477 0.993523
vt 0.006477 0.006477
vt 0.018232 0.981768
vt 0.018232 0.018232
vt 0.024149 0.975851
vt 0.024149 0.024149
vt 0.030561 0.969439
vt 0.030561 0.030561
vt 0.037310 0.962690
vt 0.037310 0.037310
vt 0.998918 0.001082
vt 0.999728 0.000272
vt 0.997590 0.002410
vt 0.995777 0.004223
vt 0.993523 0.006477
vt 0.981768 0.018232
vt 0.975851 0.024149
vt 0.969439 0.030561
vt 0.962690 0.037310
vt 0.998918 0.998918
vt 0.999728 0.999728
vt 0.997590 0.997590
vt 0.995777 0.995777
vt 0.993523 0.993523
vt 0.981768 0.981768
vt 0.975851 0.975851
vt 0.969439 0.969439
vt 0.962690 0.962690
vn -1.0000 0.0000 0.0000
vn -0.0599 -0.9982 0.0000
vn -0.1030 -0.9947 0.0000
vn -0.1514 -0.9885 0.0000
vn -0.2088 -0.9780 0.0000
vn -0.2809 -0.9597 0.0000
vn -0.3777 -0.9259 0.0000
vn -0.5167 -0.8561 0.0000
vn -0.7213 -0.6927 0.0000
vn -0.9539 -0.3003 0.0000
vn -0.1657 0.0000 0.9862
vn -0.2785 0.0000 0.9604
vn -0.3942 0.0000 0.9190
vn -0.5131 0.0000 0.8583
vn -0.6339 0.0000 0.7734
vn -0.7524 0.0000 0.6587
vn -0.8606 0.0000 0.5093
vn -0.9459 0.0000 0.3244
vn -0.9937 0.0000 0.1117
vn -0.0599 0.9982 0.0000
vn -0.1030 0.9947 0.0000
vn -0.1514 0.9885 0.0000
vn -0.2088 0.9780 0.0000
vn -0.2809 0.9597 0.0000
vn -0.3777 0.9259 0.0000
vn -0.5167 0.8562 0.0000
vn -0.7213 0.6926 0.0000
vn -0.9539 0.3003 0.0000
vn -0.1657 0.0000 -0.9862
vn -0.2785 0.0000 -0.9604
vn -0.3942 0.0000 -0.9190
vn -0.5131 0.0000 -0.8583
vn -0.6339 0.0000 -0.7734
vn -0.7524 0.0000 -0.6587
vn -0.8606 0.0000 -0.5093
vn -0.9459 0.0000 -0.3244
vn -0.9937 0.0000 -0.1117
vn 1.0000 0.0000 0.0000
vn 0.0594 0.9982 0.0000
vn 0.1039 0.9946 0.0000
vn 0.1525 0.9883 0.0000
vn 0.2101 0.9777 0.0000
vn 0.2826 0.9593 0.0000
vn 0.3798 0.9251 0.0000
vn 0.5196 0.8544 0.0000
vn 0.7251 0.6886 0.0000
vn 0.9567 0.2912 0.0000
vn 0.1644 -0.0000 -0.9864
vn 0.2806 0.0000 -0.9598
vn 0.3967 0.0000 -0.9179
vn 0.5157 0.0000 -0.8568
vn 0.6363 0.0000 -0.7715
vn 0.7545 0.0000 -0.6563
vn 0.8623 0.0000 -0.5064
vn 0.9470 0.0000 -0.3212
vn 0.9941 0.0000 -0.1081
vn 0.0594 -0.9982 0.0000
vn 0.1039 -0.9946 0.0000
vn 0.1525 -0.9883 0.0000
vn 0.2101 -0.9777 0.0000
vn 0.2826 -0.9593 0.0000
vn 0.3798 -0.9251 0.0000
vn 0.5196 -0.8544 0.0000
vn 0.7251 -0.6886 0.0000
vn 0.9567 -0.2912 0.0000
vn 0.1644 -0.0000 0.9864
vn 0.2806 0.0000 0.9598
vn 0.3967 0.0000 0.9179
vn 0.5157 0.0000 0.8568
vn 0.6363 0.0000 0.7715
vn 0.7545 0.0000 0.6563
vn 0.8623 0.0000 0.5064
vn 0.9470 0.0000 0.3212
vn 0.9941 0.0000 0.1081
vn 0.4618 -0.8870 0.0000
vn 0.8246 -0.0000 0.5657
vn 0.4618 0.8870 0.0000
vn 0.8246 -0.0000 -0.5657
usemtl None
s off
f 2/1/1 13/2/1 35/3/1 23/4/1
f 33/5/2 3/6/2 4/7/2 32/8/2
f 32/8/3 4/7/3 5/9/3 31/10/3
f 31/10/4 5/9/4 6/11/4 30/12/4
f 30/12/5 6/11/5 7/13/5 29/14/5
f 29/14/6 7/13/6 8/15/6 28/16/6
f 28/16/7 8/15/7 9/17/7 27/18/7
f 27/18/8 9/17/8 10/19/8 26/20/8
f 26/20/9 10/19/9 11/21/9 25/22/9
f 25/22/10 11/21/10 2/1/10 23/4/10
f 3/6/11 14/23/11 15/24/11 4/7/11
f 4/7/12 15/24/12 16/25/12 5/9/12
f 5/9/13 16/25/13 17/26/13 6/11/13
f 6/11/14 17/26/14 18/27/14 7/13/14
f 7/13/15 18/27/15 19/28/15 8/15/15
f 8/15/16 19/28/16 20/29/16 9/17/16
f 9/17/17 20/29/17 21/30/17 10/19/17
f 10/19/18 21/30/18 22/31/18 11/21/18
f 11/21/19 22/31/19 13/2/19 2/1/19
f 14/23/20 36/32/20 37/33/20 15/24/20
f 15/24/21 37/33/21 38/34/21 16/25/21
f 16/25/22 38/34/22 39/35/22 17/26/22
f 17/26/23 39/35/23 40/36/23 18/27/23
f 18/27/24 40/36/24 41/37/24 19/28/24
f 19/28/25 41/37/25 42/38/25 20/29/25
f 20/29/26 42/38/26 43/39/26 21/30/26
f 21/30/27 43/39/27 44/40/27 22/31/27
f 22/31/28 44/40/28 35/3/28 13/2/28
f 36/32/29 33/5/29 32/8/29 37/33/29
f 37/33/30 32/8/30 31/10/30 38/34/30
f 38/34/31 31/10/31 30/12/31 39/35/31
f 39/35/32 30/12/32 29/14/32 40/36/32
f 40/36/33 29/14/33 28/16/33 41/37/33
f 41/37/34 28/16/34 27/18/34 42/38/34
f 42/38/35 27/18/35 26/20/35 43/39/35
f 43/39/36 26/20/36 25/22/36 44/40/36
f 44/40/37 25/22/37 23/4/37 35/3/37
f 46/41/38 67/42/38 79/43/38 57/44/38
f 77/45/39 76/46/39 48/47/39 47/48/39
f 76/46/40 75/49/40 49/50/40 48/47/40
f 75/49/41 74/51/41 50/52/41 49/50/41
f 74/51/42 73/53/42 51/54/42 50/52/42
f 73/53/43 72/55/43 52/56/43 51/54/43
f 72/55/44 71/57/44 53/58/44 52/56/44
f 71/57/45 70/59/45 54/60/45 53/58/45
f 70/59/46 69/61/46 55/62/46 54/60/46
f 69/61/47 67/42/47 46/41/47 55/62/47
f 47/48/48 48/47/48 59/63/48 58/64/48
f 48/47/49 49/50/49 60/65/49 59/63/49
f 49/50/50 50/52/50 61/66/50 60/65/50
f 50/52/51 51/54/51 62/67/51 61/66/51
f 51/54/52 52/56/52 63/68/52 62/67/52
f 52/56/53 53/58/53 64/69/53 63/68/53
f 53/58/54 54/60/54 65/70/54 64/69/54
f 54/60/55 55/62/55 66/71/55 65/70/55
f 55/62/56 46/41/56 57/44/56 66/71/56
f 58/64/57 59/63/57 81/72/57 80/73/57
f 59/63/58 60/65/58 82/74/58 81/72/58
f 60/65/59 61/66/59 83/75/59 82/74/59
f 61/66/60 62/67/60 84/76/60 83/75/60
f 62/67/61 63/68/61 85/77/61 84/76/61
f 63/68/62 64/69/62 86/78/62 85/77/62
f 64/69/63 65/70/63 87/79/63 86/78/63
f 65/70/64 66/71/64 88/80/64 87/79/64
f 66/71/65 57/44/65 79/43/65 88/80/65
f 80/73/66 81/72/66 76/46/66 77/45/66
f 81/72/67 82/74/67 75/49/67 76/46/67
f 82/74/68 83/75/68 74/51/68 75/49/68
f 83/75/69 84/76/69 73/53/69 74/51/69
f 84/76/70 85/77/70 72/55/70 73/53/70
f 85/77/71 86/78/71 71/57/71 72/55/71
f 86/78/72 87/79/72 70/59/72 71/57/72
f 87/79/73 88/80/73 69/61/73 70/59/73
f 88/80/74 79/43/74 67/42/74 69/61/74
f 3/6/75 33/5/75 77/45/75 47/48/75
f 14/23/76 3/6/76 47/48/76 58/64/76
f 36/32/77 14/23/77 58/64/77 80/73/77
f 33/5/78 36/32/78 80/73/78 77/45/78
l 33 24
l 1 3
l 12 14
l 34 36
l 77 68
l 45 47
l 56 58
l 78 80
