# Blender v2.80 (sub 45) OBJ File: 'Lab Furniture & Equipment.blend'
# www.blender.org
mtllib Shelf.mtl
o Shelf_Top_Cube.080
v -2.000000 -0.050000 2.000000
v -2.000000 0.050000 2.000000
v -2.000000 -0.050000 -2.000000
v -2.000000 0.050000 -2.000000
v 0.000000 -0.050000 2.000000
v 0.000000 0.050000 2.000000
v 0.000000 -0.050000 -2.000000
v 0.000000 0.050000 -2.000000
vt 0.375000 0.000000
vt 0.625000 0.000000
vt 0.625000 0.250000
vt 0.375000 0.250000
vt 0.625000 0.500000
vt 0.375000 0.500000
vt 0.625000 0.750000
vt 0.375000 0.750000
vt 0.625000 1.000000
vt 0.375000 1.000000
vt 0.125000 0.500000
vt 0.125000 0.750000
vt 0.875000 0.500000
vt 0.875000 0.750000
vn -1.0000 0.0000 0.0000
vn 0.0000 0.0000 -1.0000
vn 1.0000 0.0000 0.0000
vn 0.0000 0.0000 1.0000
vn 0.0000 -1.0000 0.0000
vn 0.0000 1.0000 0.0000
usemtl None
s off
f 1/1/1 2/2/1 4/3/1 3/4/1
f 3/4/2 4/3/2 8/5/2 7/6/2
f 7/6/3 8/5/3 6/7/3 5/8/3
f 5/8/4 6/7/4 2/9/4 1/10/4
f 3/11/5 7/6/5 5/8/5 1/12/5
f 8/5/6 4/13/6 2/14/6 6/7/6
o Shelf_Support_2_Cube.081
v -1.200000 0.000000 1.600000
v -1.200000 0.000000 1.400000
v 0.000000 0.000000 1.600000
v 0.000000 0.000000 1.400000
v -1.200000 -0.040315 1.600000
v -1.200000 -0.040315 1.400000
v 0.000000 -0.399380 1.400000
v 0.000000 -0.399380 1.600000
vt 0.619961 0.000000
vt 0.625000 0.000000
vt 0.625000 0.250000
vt 0.619961 0.250000
vt 0.625000 0.500000
vt 0.575078 0.500000
vt 0.625000 0.750000
vt 0.575078 0.750000
vt 0.625000 1.000000
vt 0.619961 1.000000
vt 0.875000 0.500000
vt 0.875000 0.750000
vn -1.0000 0.0000 0.0000
vn 0.0000 0.0000 -1.0000
vn 1.0000 0.0000 0.0000
vn -0.0000 0.0000 1.0000
vn 0.0000 1.0000 0.0000
vn -0.2867 -0.9580 0.0000
usemtl None
s off
f 13/15/7 9/16/7 10/17/7 14/18/7
f 14/18/8 10/17/8 12/19/8 15/20/8
f 15/20/9 12/19/9 11/21/9 16/22/9
f 16/22/10 11/21/10 9/23/10 13/24/10
f 12/19/11 10/25/11 9/26/11 11/21/11
f 14/18/12 15/20/12 16/22/12 13/24/12
o Shelf_Support_1_Cube.082
v -1.200000 0.000000 -1.400000
v -1.200000 0.000000 -1.600000
v 0.000000 0.000000 -1.400000
v 0.000000 0.000000 -1.600000
v -1.200000 -0.040315 -1.400000
v -1.200000 -0.040315 -1.600000
v 0.000000 -0.399380 -1.600000
v 0.000000 -0.399380 -1.400000
vt 0.619961 0.000000
vt 0.625000 0.000000
vt 0.625000 0.250000
vt 0.619961 0.250000
vt 0.625000 0.500000
vt 0.575078 0.500000
vt 0.625000 0.750000
vt 0.575078 0.750000
vt 0.625000 1.000000
vt 0.619961 1.000000
vt 0.875000 0.500000
vt 0.875000 0.750000
vn -1.0000 0.0000 0.0000
vn 0.0000 0.0000 -1.0000
vn 1.0000 0.0000 0.0000
vn -0.0000 0.0000 1.0000
vn 0.0000 1.0000 0.0000
vn -0.2867 -0.9580 0.0000
usemtl None
s off
f 21/27/13 17/28/13 18/29/13 22/30/13
f 22/30/14 18/29/14 20/31/14 23/32/14
f 23/32/15 20/31/15 19/33/15 24/34/15
f 24/34/16 19/33/16 17/35/16 21/36/16
f 20/31/17 18/37/17 17/38/17 19/33/17
f 22/30/18 23/32/18 24/34/18 21/36/18
