# Blender v2.80 (sub 45) OBJ File: 'Lab Furniture & Equipment.blend'
# www.blender.org
mtllib ClockFrame.mtl
o ClockFrame_Circle.003
v 0.000000 1.000000 0.100000
v -0.195090 0.980785 0.100000
v -0.382683 0.923880 0.100000
v -0.555570 0.831470 0.100000
v -0.707107 0.707107 0.100000
v -0.831470 0.555570 0.100000
v -0.923880 0.382683 0.100000
v -0.980785 0.195090 0.100000
v -1.000000 0.000000 0.100000
v -0.980785 -0.195090 0.100000
v -0.923880 -0.382683 0.100000
v -0.831470 -0.555570 0.100000
v -0.707107 -0.707107 0.100000
v -0.555570 -0.831470 0.100000
v -0.382683 -0.923880 0.100000
v -0.195090 -0.980785 0.100000
v 0.000000 -1.000000 0.100000
v 0.195091 -0.980785 0.100000
v 0.382684 -0.923879 0.100000
v 0.555571 -0.831469 0.100000
v 0.707107 -0.707106 0.100000
v 0.831470 -0.555570 0.100000
v 0.923880 -0.382683 0.100000
v 0.980785 -0.195089 0.100000
v 1.000000 0.000001 0.100000
v 0.980785 0.195091 0.100000
v 0.923879 0.382684 0.100000
v 0.831469 0.555571 0.100000
v 0.707106 0.707108 0.100000
v 0.555569 0.831470 0.100000
v 0.382682 0.923880 0.100000
v 0.195089 0.980786 0.100000
v -0.000000 0.900000 0.100000
v 0.175580 0.882707 0.100000
v 0.344414 0.831492 0.100000
v 0.500012 0.748323 0.100000
v 0.636395 0.636397 0.100000
v 0.748322 0.500014 0.100000
v 0.831491 0.344416 0.100000
v 0.882707 0.175582 0.100000
v 0.900000 0.000001 0.100000
v 0.882707 -0.175581 0.100000
v 0.831492 -0.344414 0.100000
v 0.748323 -0.500013 0.100000
v 0.636396 -0.636396 0.100000
v 0.500014 -0.748322 0.100000
v 0.344415 -0.831491 0.100000
v 0.175582 -0.882706 0.100000
v 0.000000 -0.900000 0.100000
v -0.175581 -0.882707 0.100000
v -0.344415 -0.831492 0.100000
v -0.500013 -0.748323 0.100000
v -0.636396 -0.636396 0.100000
v -0.748323 -0.500013 0.100000
v -0.831492 -0.344415 0.100000
v -0.882707 -0.175581 0.100000
v -0.900000 -0.000000 0.100000
v -0.882707 0.175581 0.100000
v -0.831491 0.344415 0.100000
v -0.748322 0.500013 0.100000
v -0.636396 0.636396 0.100000
v -0.500013 0.748323 0.100000
v -0.344415 0.831492 0.100000
v -0.175581 0.882707 0.100000
v 0.000000 1.000000 0.000000
v -0.195090 0.980785 0.000000
v -0.382683 0.923880 0.000000
v -0.555570 0.831470 0.000003
v -0.707107 0.707107 0.000000
v -0.831470 0.555570 0.000003
v -0.923880 0.382683 0.000000
v -0.980785 0.195090 0.000000
v -1.000000 0.000000 0.000000
v -0.980785 -0.195090 0.000003
v -0.923880 -0.382683 -0.000000
v -0.831470 -0.555570 0.000003
v -0.707107 -0.707107 -0.000000
v -0.555570 -0.831470 0.000003
v -0.382683 -0.923880 -0.000000
v -0.195090 -0.980785 -0.000000
v 0.000000 -1.000000 0.000003
v 0.195091 -0.980785 0.000003
v 0.382684 -0.923879 -0.000000
v 0.555571 -0.831469 0.000003
v 0.707107 -0.707106 -0.000000
v 0.831470 -0.555570 0.000003
v 0.923880 -0.382683 -0.000000
v 0.980785 -0.195089 -0.000000
v 1.000000 0.000001 0.000003
v 0.980785 0.195091 0.000003
v 0.923879 0.382684 0.000000
v 0.831469 0.555571 0.000003
v 0.707106 0.707108 0.000000
v 0.555569 0.831470 0.000000
v 0.382682 0.923880 0.000000
v 0.195089 0.980786 0.000000
v -0.000000 0.900000 0.000000
v 0.175580 0.882707 0.000000
v 0.344414 0.831492 0.000000
v 0.500012 0.748323 0.000000
v 0.636395 0.636397 0.000003
v 0.748322 0.500014 0.000000
v 0.831491 0.344416 0.000000
v 0.882707 0.175582 0.000000
v 0.900000 0.000001 0.000003
v 0.882707 -0.175581 -0.000000
v 0.831492 -0.344414 0.000003
v 0.748323 -0.500013 -0.000000
v 0.636396 -0.636396 -0.000000
v 0.500014 -0.748322 -0.000000
v 0.344415 -0.831491 -0.000000
v 0.175582 -0.882706 0.000003
v 0.000000 -0.900000 0.000003
v -0.175581 -0.882707 -0.000000
v -0.344415 -0.831492 0.000003
v -0.500013 -0.748323 -0.000000
v -0.636396 -0.636396 -0.000000
v -0.748323 -0.500013 -0.000000
v -0.831492 -0.344415 0.000003
v -0.882707 -0.175581 0.000003
v -0.900000 -0.000000 0.000000
v -0.882707 0.175581 0.000000
v -0.831491 0.344415 0.000000
v -0.748322 0.500013 0.000000
v -0.636396 0.636396 0.000000
v -0.500013 0.748323 0.000000
v -0.344415 0.831492 0.000000
v -0.175581 0.882707 0.000000
vt 0.000000 0.000000
vt 0.000000 0.000000
vt 0.000000 0.000000
vt 0.000000 0.000000
vt 0.000000 0.000000
vt 0.000000 0.000000
vt 0.000000 0.000000
vt 0.000000 0.000000
vt 0.000000 0.000000
vt 0.000000 0.000000
vt 0.000000 0.000000
vt 0.000000 0.000000
vt 0.000000 0.000000
vt 0.000000 0.000000
vt 0.000000 0.000000
vt 0.000000 0.000000
vt 0.000000 0.000000
vt 0.000000 0.000000
vt 0.000000 0.000000
vt 0.000000 0.000000
vt 0.000000 0.000000
vt 0.000000 0.000000
vt 0.000000 0.000000
vt 0.000000 0.000000
vt 0.000000 0.000000
vt 0.000000 0.000000
vt 0.000000 0.000000
vt 0.000000 0.000000
vt 0.000000 0.000000
vt 0.000000 0.000000
vt 0.000000 0.000000
vt 0.000000 0.000000
vt 0.000000 0.000000
vt 0.000000 0.000000
vt 0.000000 0.000000
vt 0.000000 0.000000
vt 0.000000 0.000000
vt 0.000000 0.000000
vt 0.000000 0.000000
vt 0.000000 0.000000
vt 0.000000 0.000000
vt 0.000000 0.000000
vt 0.000000 0.000000
vt 0.000000 0.000000
vt 0.000000 0.000000
vt 0.000000 0.000000
vt 0.000000 0.000000
vt 0.000000 0.000000
vt 0.000000 0.000000
vt 0.000000 0.000000
vt 0.000000 0.000000
vt 0.000000 0.000000
vt 0.000000 0.000000
vt 0.000000 0.000000
vt 0.000000 0.000000
vt 0.000000 0.000000
vt 0.000000 0.000000
vt 0.000000 0.000000
vt 0.000000 0.000000
vt 0.000000 0.000000
vt 0.000000 0.000000
vt 0.000000 0.000000
vt 0.000000 0.000000
vt 0.000000 0.000000
vt 0.000000 0.000000
vt 0.000000 0.000000
vt 0.000000 0.000000
vt 0.000000 0.000000
vt 0.000000 0.000000
vt 0.000000 0.000000
vt 0.000000 0.000000
vt 0.000000 0.000000
vt 0.000000 0.000000
vt 0.000000 0.000000
vt 0.000000 0.000000
vt 0.000000 0.000000
vt 0.000000 0.000000
vt 0.000000 0.000000
vt 0.000000 0.000000
vt 0.000000 0.000000
vt 0.000000 0.000000
vt 0.000000 0.000000
vt 0.000000 0.000000
vt 0.000000 0.000000
vt 0.000000 0.000000
vt 0.000000 0.000000
vt 0.000000 0.000000
vt 0.000000 0.000000
vt 0.000000 0.000000
vt 0.000000 0.000000
vt 0.000000 0.000000
vt 0.000000 0.000000
vt 0.000000 0.000000
vt 0.000000 0.000000
vt 0.000000 0.000000
vt 0.000000 0.000000
vt 0.000000 0.000000
vt 0.000000 0.000000
vt 0.000000 0.000000
vt 0.000000 0.000000
vt 0.000000 0.000000
vt 0.000000 0.000000
vt 0.000000 0.000000
vt 0.000000 0.000000
vt 0.000000 0.000000
vt 0.000000 0.000000
vt 0.000000 0.000000
vt 0.000000 0.000000
vt 0.000000 0.000000
vt 0.000000 0.000000
vt 0.000000 0.000000
vt 0.000000 0.000000
vt 0.000000 0.000000
vt 0.000000 0.000000
vt 0.000000 0.000000
vt 0.000000 0.000000
vt 0.000000 0.000000
vt 0.000000 0.000000
vt 0.000000 0.000000
vt 0.000000 0.000000
vt 0.000000 0.000000
vt 0.000000 0.000000
vt 0.000000 0.000000
vt 0.000000 0.000000
vt 0.000000 0.000000
vt 0.000000 0.000000
vt 0.000000 0.000000
vt 0.000000 0.000000
vn 0.0000 -0.0000 1.0000
vn -0.0000 0.0000 -1.0000
vn -0.0980 0.9952 0.0000
vn -0.2903 0.9569 0.0000
vn -0.4714 0.8819 0.0000
vn -0.6344 0.7730 0.0000
vn -0.7730 0.6344 0.0000
vn -0.8819 0.4714 0.0000
vn -0.9569 0.2903 0.0000
vn -0.9952 0.0980 0.0000
vn -0.9952 -0.0980 0.0000
vn -0.9569 -0.2903 0.0000
vn -0.8819 -0.4714 0.0000
vn -0.7730 -0.6344 0.0000
vn -0.6344 -0.7730 0.0000
vn -0.4714 -0.8819 0.0000
vn -0.2903 -0.9569 0.0000
vn -0.0980 -0.9952 0.0000
vn 0.0980 -0.9952 0.0000
vn 0.2903 -0.9569 0.0000
vn 0.4714 -0.8819 0.0000
vn 0.6344 -0.7730 0.0000
vn 0.7730 -0.6344 0.0000
vn 0.8819 -0.4714 0.0000
vn 0.9569 -0.2903 0.0000
vn 0.9952 -0.0980 0.0000
vn 0.9952 0.0980 0.0000
vn 0.9569 0.2903 0.0000
vn 0.8819 0.4714 0.0000
vn 0.7730 0.6344 0.0000
vn 0.6344 0.7730 0.0000
vn 0.4714 0.8819 0.0000
vn 0.2903 0.9569 0.0000
vn 0.0980 0.9952 0.0000
usemtl None
s off
f 2/1/1 3/2/1 4/3/1 5/4/1 6/5/1 7/6/1 8/7/1 9/8/1 57/9/1 58/10/1 59/11/1 60/12/1 61/13/1 62/14/1 63/15/1 64/16/1 33/17/1 34/18/1 35/19/1 36/20/1 37/21/1 38/22/1 39/23/1 40/24/1 41/25/1 25/26/1 26/27/1 27/28/1 28/29/1 29/30/1 30/31/1 31/32/1 32/33/1 1/34/1
f 25/26/1 41/25/1 42/35/1 43/36/1 44/37/1 45/38/1 46/39/1 47/40/1 48/41/1 49/42/1 50/43/1 51/44/1 52/45/1 53/46/1 54/47/1 55/48/1 56/49/1 57/9/1 9/8/1 10/50/1 11/51/1 12/52/1 13/53/1 14/54/1 15/55/1 16/56/1 17/57/1 18/58/1 19/59/1 20/60/1 21/61/1 22/62/1 23/63/1 24/64/1
f 66/65/2 65/66/2 96/67/2 95/68/2 94/69/2 93/70/2 92/71/2 91/72/2 90/73/2 89/74/2 105/75/2 104/76/2 103/77/2 102/78/2 101/79/2 100/80/2 99/81/2 98/82/2 97/83/2 128/84/2 127/85/2 126/86/2 125/87/2 124/88/2 123/89/2 122/90/2 121/91/2 73/92/2 72/93/2 71/94/2 70/95/2 69/96/2 68/97/2 67/98/2
f 89/74/2 88/99/2 87/100/2 86/101/2 85/102/2 84/103/2 83/104/2 82/105/2 81/106/2 80/107/2 79/108/2 78/109/2 77/110/2 76/111/2 75/112/2 74/113/2 73/92/2 121/91/2 120/114/2 119/115/2 118/116/2 117/117/2 116/118/2 115/119/2 114/120/2 113/121/2 112/122/2 111/123/2 110/124/2 109/125/2 108/126/2 107/127/2 106/128/2 105/75/2
f 2/1/3 1/34/3 65/66/3 66/65/3
f 3/2/4 2/1/4 66/65/4 67/98/4
f 4/3/5 3/2/5 67/98/5 68/97/5
f 5/4/6 4/3/6 68/97/6 69/96/6
f 6/5/7 5/4/7 69/96/7 70/95/7
f 7/6/8 6/5/8 70/95/8 71/94/8
f 8/7/9 7/6/9 71/94/9 72/93/9
f 9/8/10 8/7/10 72/93/10 73/92/10
f 10/50/11 9/8/11 73/92/11 74/113/11
f 11/51/12 10/50/12 74/113/12 75/112/12
f 12/52/13 11/51/13 75/112/13 76/111/13
f 13/53/14 12/52/14 76/111/14 77/110/14
f 14/54/15 13/53/15 77/110/15 78/109/15
f 15/55/16 14/54/16 78/109/16 79/108/16
f 16/56/17 15/55/17 79/108/17 80/107/17
f 17/57/18 16/56/18 80/107/18 81/106/18
f 18/58/19 17/57/19 81/106/19 82/105/19
f 19/59/20 18/58/20 82/105/20 83/104/20
f 20/60/21 19/59/21 83/104/21 84/103/21
f 21/61/22 20/60/22 84/103/22 85/102/22
f 22/62/23 21/61/23 85/102/23 86/101/23
f 23/63/24 22/62/24 86/101/24 87/100/24
f 24/64/25 23/63/25 87/100/25 88/99/25
f 25/26/26 24/64/26 88/99/26 89/74/26
f 26/27/27 25/26/27 89/74/27 90/73/27
f 27/28/28 26/27/28 90/73/28 91/72/28
f 28/29/29 27/28/29 91/72/29 92/71/29
f 29/30/30 28/29/30 92/71/30 93/70/30
f 30/31/31 29/30/31 93/70/31 94/69/31
f 31/32/32 30/31/32 94/69/32 95/68/32
f 32/33/33 31/32/33 95/68/33 96/67/33
f 1/34/34 32/33/34 96/67/34 65/66/34
f 34/18/18 33/17/18 97/83/18 98/82/18
f 35/19/17 34/18/17 98/82/17 99/81/17
f 36/20/16 35/19/16 99/81/16 100/80/16
f 37/21/15 36/20/15 100/80/15 101/79/15
f 38/22/14 37/21/14 101/79/14 102/78/14
f 39/23/13 38/22/13 102/78/13 103/77/13
f 40/24/12 39/23/12 103/77/12 104/76/12
f 41/25/11 40/24/11 104/76/11 105/75/11
f 42/35/10 41/25/10 105/75/10 106/128/10
f 43/36/9 42/35/9 106/128/9 107/127/9
f 44/37/8 43/36/8 107/127/8 108/126/8
f 45/38/7 44/37/7 108/126/7 109/125/7
f 46/39/6 45/38/6 109/125/6 110/124/6
f 47/40/5 46/39/5 110/124/5 111/123/5
f 48/41/4 47/40/4 111/123/4 112/122/4
f 49/42/3 48/41/3 112/122/3 113/121/3
f 50/43/34 49/42/34 113/121/34 114/120/34
f 51/44/33 50/43/33 114/120/33 115/119/33
f 52/45/32 51/44/32 115/119/32 116/118/32
f 53/46/31 52/45/31 116/118/31 117/117/31
f 54/47/30 53/46/30 117/117/30 118/116/30
f 55/48/29 54/47/29 118/116/29 119/115/29
f 56/49/28 55/48/28 119/115/28 120/114/28
f 57/9/27 56/49/27 120/114/27 121/91/27
f 58/10/26 57/9/26 121/91/26 122/90/26
f 59/11/25 58/10/25 122/90/25 123/89/25
f 60/12/24 59/11/24 123/89/24 124/88/24
f 61/13/23 60/12/23 124/88/23 125/87/23
f 62/14/22 61/13/22 125/87/22 126/86/22
f 63/15/21 62/14/21 126/86/21 127/85/21
f 64/16/20 63/15/20 127/85/20 128/84/20
f 33/17/19 64/16/19 128/84/19 97/83/19
