# Blender v2.80 (sub 45) OBJ File: 'Lab Furniture & Equipment.blend'
# www.blender.org
mtllib Sink Top.mtl
o Sink_Top_Plane.008
v 0.000000 2.100000 2.050000
v 2.400000 2.100000 2.050000
v 0.000000 2.100000 -2.050000
v 2.400000 2.100000 -2.050000
v 0.400000 2.100000 0.840000
v 0.400647 2.100000 0.868245
v 0.402586 2.100000 0.896316
v 0.405802 2.100000 0.924040
v 0.410278 2.100000 0.951246
v 0.415985 2.100000 0.977766
v 0.422888 2.100000 1.003436
v 0.430946 2.100000 1.028099
v 0.440107 2.100000 1.051603
v 0.450315 2.100000 1.073801
v 0.461508 2.100000 1.094558
v 0.473616 2.100000 1.113746
v 0.486565 2.100000 1.131246
v 0.500275 2.100000 1.146950
v 0.514662 2.100000 1.160762
v 0.529637 2.100000 1.172597
v 0.545106 2.100000 1.182380
v 0.560976 2.100000 1.190053
v 0.577149 2.100000 1.195567
v 0.593524 2.100000 1.198890
v 0.610000 2.100000 1.200000
v 1.590000 2.100000 1.200000
v 1.606477 2.100000 1.198890
v 1.622852 2.100000 1.195567
v 1.639024 2.100000 1.190053
v 1.654894 2.100000 1.182380
v 1.670364 2.100000 1.172597
v 1.685338 2.100000 1.160762
v 1.699725 2.100000 1.146950
v 1.713435 2.100000 1.131246
v 1.726384 2.100000 1.113746
v 1.738493 2.100000 1.094558
v 1.749686 2.100000 1.073801
v 1.759894 2.100000 1.051603
v 1.769055 2.100000 1.028099
v 1.777112 2.100000 1.003436
v 1.784015 2.100000 0.977766
v 1.789722 2.100000 0.951246
v 1.794198 2.100000 0.924040
v 1.797415 2.100000 0.896316
v 1.799353 2.100000 0.868245
v 1.800000 2.100000 0.840000
v 1.800000 2.100000 -0.840000
v 1.799353 2.100000 -0.868245
v 1.797415 2.100000 -0.896316
v 1.794198 2.100000 -0.924040
v 1.789722 2.100000 -0.951246
v 1.784015 2.100000 -0.977765
v 1.777112 2.100000 -1.003437
v 1.769055 2.100000 -1.028100
v 1.759894 2.100000 -1.051602
v 1.749686 2.100000 -1.073801
v 1.738492 2.100000 -1.094558
v 1.726384 2.100000 -1.113746
v 1.713435 2.100000 -1.131246
v 1.699725 2.100000 -1.146950
v 1.685338 2.100000 -1.160762
v 1.670364 2.100000 -1.172597
v 1.654894 2.100000 -1.182380
v 1.639024 2.100000 -1.190053
v 1.622852 2.100000 -1.195568
v 1.606477 2.100000 -1.198890
v 1.590000 2.100000 -1.200000
v 0.610000 2.100000 -1.200000
v 0.593524 2.100000 -1.198890
v 0.577149 2.100000 -1.195568
v 0.560976 2.100000 -1.190053
v 0.545106 2.100000 -1.182380
v 0.529637 2.100000 -1.172597
v 0.514662 2.100000 -1.160762
v 0.500275 2.100000 -1.146950
v 0.486565 2.100000 -1.131246
v 0.473616 2.100000 -1.113746
v 0.461508 2.100000 -1.094558
v 0.450315 2.100000 -1.073801
v 0.440107 2.100000 -1.051602
v 0.430946 2.100000 -1.028100
v 0.422888 2.100000 -1.003437
v 0.415985 2.100000 -0.977766
v 0.410278 2.100000 -0.951246
v 0.405802 2.100000 -0.924040
v 0.402586 2.100000 -0.896316
v 0.400647 2.100000 -0.868246
v 0.400000 2.100000 -0.840000
v 0.000000 2.000000 2.050000
v 2.400000 2.000003 2.050000
v 0.000000 2.000000 -2.050000
v 2.400000 2.000000 -2.050000
v 0.400000 2.000000 0.840000
v 0.400647 2.000000 0.868245
v 0.402586 2.000000 0.896316
v 0.405802 2.000000 0.924040
v 0.410278 2.000000 0.951246
v 0.415985 2.000000 0.977766
v 0.422888 2.000000 1.003436
v 0.430946 2.000003 1.028099
v 0.440107 2.000000 1.051603
v 0.450315 2.000000 1.073801
v 0.461508 2.000000 1.094558
v 0.473616 2.000000 1.113746
v 0.486565 2.000000 1.131246
v 0.500275 2.000000 1.146950
v 0.514662 2.000000 1.160762
v 0.529637 2.000003 1.172597
v 0.545106 2.000000 1.182380
v 0.560976 2.000003 1.190053
v 0.577149 2.000000 1.195567
v 0.593524 2.000000 1.198890
v 0.610000 2.000000 1.200000
v 1.590000 2.000000 1.200000
v 1.606477 2.000000 1.198890
v 1.622852 2.000000 1.195567
v 1.639024 2.000000 1.190053
v 1.654894 2.000000 1.182380
v 1.670364 2.000000 1.172597
v 1.685338 2.000000 1.160762
v 1.699725 2.000000 1.146950
v 1.713435 2.000000 1.131246
v 1.726384 2.000003 1.113746
v 1.738493 2.000000 1.094558
v 1.749686 2.000000 1.073801
v 1.759894 2.000000 1.051603
v 1.769055 2.000003 1.028099
v 1.777112 2.000000 1.003436
v 1.784015 2.000000 0.977766
v 1.789722 2.000000 0.951246
v 1.794198 2.000000 0.924040
v 1.797415 2.000000 0.896316
v 1.799353 2.000000 0.868245
v 1.800000 2.000000 0.840000
v 1.800000 2.000000 -0.840000
v 1.799353 2.000000 -0.868245
v 1.797415 2.000000 -0.896316
v 1.794198 2.000000 -0.924040
v 1.789722 2.000000 -0.951246
v 1.784015 2.000000 -0.977765
v 1.777112 2.000000 -1.003437
v 1.769055 2.000000 -1.028100
v 1.759894 2.000003 -1.051602
v 1.749686 2.000000 -1.073801
v 1.738492 2.000000 -1.094558
v 1.726384 2.000000 -1.113746
v 1.713435 2.000003 -1.131246
v 1.699725 2.000000 -1.146950
v 1.685338 2.000000 -1.160762
v 1.670364 2.000003 -1.172597
v 1.654894 2.000000 -1.182380
v 1.639024 2.000000 -1.190053
v 1.622852 2.000003 -1.195568
v 1.606477 2.000000 -1.198890
v 1.590000 2.000000 -1.200000
v 0.610000 2.000000 -1.200000
v 0.593524 2.000000 -1.198890
v 0.577149 2.000000 -1.195568
v 0.560976 2.000000 -1.190053
v 0.545106 2.000000 -1.182380
v 0.529637 2.000000 -1.172597
v 0.514662 2.000003 -1.160762
v 0.500275 2.000000 -1.146950
v 0.486565 2.000000 -1.131246
v 0.473616 2.000000 -1.113746
v 0.461508 2.000000 -1.094558
v 0.450315 2.000000 -1.073801
v 0.440107 2.000000 -1.051602
v 0.430946 2.000003 -1.028100
v 0.422888 2.000000 -1.003437
v 0.415985 2.000000 -0.977766
v 0.410278 2.000000 -0.951246
v 0.405802 2.000000 -0.924040
v 0.402586 2.000000 -0.896316
v 0.400647 2.000000 -0.868246
v 0.400000 2.000000 -0.840000
vt 0.000000 0.000000
vt 1.000000 0.000000
vt 0.750000 0.295122
vt 0.749730 0.288233
vt 0.748923 0.281386
vt 0.747582 0.274624
vt 0.745718 0.267989
vt 0.743340 0.261520
vt 0.740463 0.255259
vt 0.737106 0.249244
vt 0.733289 0.243512
vt 0.729036 0.238097
vt 0.724372 0.233035
vt 0.719327 0.228355
vt 0.713931 0.224086
vt 0.708219 0.220256
vt 0.702224 0.216887
vt 0.695985 0.214001
vt 0.689539 0.211615
vt 0.682927 0.209743
vt 0.676188 0.208398
vt 0.669365 0.207588
vt 0.662500 0.207317
vt 0.254167 0.207317
vt 0.247302 0.207588
vt 0.240479 0.208398
vt 0.233740 0.209743
vt 0.227128 0.211615
vt 0.220682 0.214001
vt 0.214442 0.216887
vt 0.208448 0.220256
vt 0.202736 0.224086
vt 0.197340 0.228355
vt 0.192295 0.233035
vt 0.187631 0.238097
vt 0.183378 0.243512
vt 0.179561 0.249244
vt 0.176204 0.255259
vt 0.173327 0.261521
vt 0.170949 0.267989
vt 0.169084 0.274624
vt 0.167744 0.281386
vt 0.166936 0.288233
vt 0.166667 0.295122
vt 0.166667 0.704878
vt 0.166936 0.711767
vt 0.167744 0.718614
vt 0.169084 0.725376
vt 0.170949 0.732011
vt 0.173327 0.738479
vt 0.176203 0.744741
vt 0.179561 0.750756
vt 0.183378 0.756488
vt 0.187631 0.761903
vt 0.192295 0.766965
vt 0.197340 0.771645
vt 0.202735 0.775914
vt 0.208448 0.779744
vt 0.214442 0.783113
vt 0.220682 0.785999
vt 0.227128 0.788385
vt 0.233740 0.790257
vt 0.240479 0.791602
vt 0.247302 0.792412
vt 0.254167 0.792683
vt 0.662500 0.792683
vt 0.669365 0.792412
vt 0.676188 0.791602
vt 0.682927 0.790257
vt 0.689539 0.788385
vt 0.695985 0.785999
vt 0.702224 0.783113
vt 0.708219 0.779744
vt 0.713931 0.775914
vt 0.719327 0.771645
vt 0.724372 0.766965
vt 0.729036 0.761903
vt 0.733289 0.756488
vt 0.737106 0.750756
vt 0.740463 0.744741
vt 0.743340 0.738479
vt 0.745717 0.732011
vt 0.747582 0.725376
vt 0.748923 0.718614
vt 0.749730 0.711767
vt 0.750000 0.704878
vt 1.000000 1.000000
vt 0.000000 1.000000
vt 0.000000 0.000000
vt 0.166667 0.295122
vt 0.166936 0.288233
vt 0.167744 0.281386
vt 0.169084 0.274624
vt 0.170949 0.267989
vt 0.173327 0.261521
vt 0.176204 0.255259
vt 0.179561 0.249244
vt 0.183378 0.243512
vt 0.187631 0.238097
vt 0.192295 0.233035
vt 0.197340 0.228355
vt 0.202736 0.224086
vt 0.208448 0.220256
vt 0.214442 0.216887
vt 0.220682 0.214001
vt 0.227128 0.211615
vt 0.233740 0.209743
vt 0.240479 0.208398
vt 0.247302 0.207588
vt 0.254167 0.207317
vt 0.662500 0.207317
vt 0.669365 0.207588
vt 0.676188 0.208398
vt 0.682927 0.209743
vt 0.689539 0.211615
vt 0.695985 0.214001
vt 0.702224 0.216887
vt 0.708219 0.220256
vt 0.713931 0.224086
vt 0.719327 0.228355
vt 0.724372 0.233035
vt 0.729036 0.238097
vt 0.733289 0.243512
vt 0.737106 0.249244
vt 0.740463 0.255259
vt 0.743340 0.261520
vt 0.745718 0.267989
vt 0.747582 0.274624
vt 0.748923 0.281386
vt 0.749730 0.288233
vt 0.750000 0.295122
vt 1.000000 0.000000
vt 0.166667 0.704878
vt 0.000000 1.000000
vt 1.000000 1.000000
vt 0.750000 0.704878
vt 0.749730 0.711767
vt 0.748923 0.718614
vt 0.747582 0.725376
vt 0.745717 0.732011
vt 0.743340 0.738479
vt 0.740463 0.744741
vt 0.737106 0.750756
vt 0.733289 0.756488
vt 0.729036 0.761903
vt 0.724372 0.766965
vt 0.719327 0.771645
vt 0.713931 0.775914
vt 0.708219 0.779744
vt 0.702224 0.783113
vt 0.695985 0.785999
vt 0.689539 0.788385
vt 0.682927 0.790257
vt 0.676188 0.791602
vt 0.669365 0.792412
vt 0.662500 0.792683
vt 0.254167 0.792683
vt 0.247302 0.792412
vt 0.240479 0.791602
vt 0.233740 0.790257
vt 0.227128 0.788385
vt 0.220682 0.785999
vt 0.214442 0.783113
vt 0.208448 0.779744
vt 0.202735 0.775914
vt 0.197340 0.771645
vt 0.192295 0.766965
vt 0.187631 0.761903
vt 0.183378 0.756488
vt 0.179561 0.750756
vt 0.176203 0.744741
vt 0.173327 0.738479
vt 0.170949 0.732011
vt 0.169084 0.725376
vt 0.167744 0.718614
vt 0.166936 0.711767
vn 0.0000 1.0000 -0.0000
vn 0.0000 -1.0000 0.0000
vn -1.0000 0.0000 0.0000
vn 0.0000 0.0000 1.0000
vn 1.0000 0.0000 0.0000
vn 0.0000 0.0000 -1.0000
vn 0.9997 0.0000 -0.0229
vn 0.9976 0.0000 -0.0689
vn 0.9933 0.0000 -0.1153
vn 0.9867 0.0000 -0.1623
vn 0.9776 0.0000 -0.2104
vn 0.9657 0.0000 -0.2597
vn 0.9506 0.0000 -0.3105
vn 0.9317 0.0000 -0.3632
vn 0.9085 0.0000 -0.4178
vn 0.8802 0.0000 -0.4746
vn 0.8457 0.0000 -0.5337
vn 0.8038 0.0000 -0.5948
vn 0.7533 0.0000 -0.6576
vn 0.6925 0.0000 -0.7214
vn 0.6200 0.0000 -0.7846
vn 0.5345 0.0000 -0.8452
vn 0.4353 0.0000 -0.9003
vn 0.3227 0.0000 -0.9465
vn 0.1989 0.0000 -0.9800
vn 0.0672 0.0000 -0.9977
vn -0.0672 0.0000 -0.9977
vn -0.1989 0.0000 -0.9800
vn -0.3227 0.0000 -0.9465
vn -0.4353 0.0000 -0.9003
vn -0.5345 0.0000 -0.8452
vn -0.6200 0.0000 -0.7846
vn -0.6926 0.0000 -0.7214
vn -0.7533 0.0000 -0.6577
vn -0.8039 0.0000 -0.5948
vn -0.8457 0.0000 -0.5337
vn -0.8802 0.0000 -0.4746
vn -0.9085 0.0000 -0.4178
vn -0.9317 0.0000 -0.3631
vn -0.9506 0.0000 -0.3105
vn -0.9657 0.0000 -0.2597
vn -0.9776 0.0000 -0.2104
vn -0.9867 0.0000 -0.1623
vn -0.9933 0.0000 -0.1153
vn -0.9976 0.0000 -0.0689
vn -0.9997 0.0000 -0.0229
vn -0.9997 0.0000 0.0229
vn -0.9976 0.0000 0.0689
vn -0.9933 0.0000 0.1153
vn -0.9867 0.0000 0.1623
vn -0.9776 0.0000 0.2104
vn -0.9657 0.0000 0.2597
vn -0.9506 0.0000 0.3105
vn -0.9317 0.0000 0.3632
vn -0.9085 0.0000 0.4178
vn -0.8802 0.0000 0.4746
vn -0.8457 0.0000 0.5337
vn -0.8039 0.0000 0.5948
vn -0.7533 0.0000 0.6577
vn -0.6926 0.0000 0.7214
vn -0.6200 0.0000 0.7846
vn -0.5345 0.0000 0.8452
vn -0.4353 0.0000 0.9003
vn -0.3228 0.0000 0.9465
vn -0.1988 0.0000 0.9800
vn -0.0672 0.0000 0.9977
vn 0.0672 0.0000 0.9977
vn 0.1988 0.0000 0.9800
vn 0.3228 0.0000 0.9465
vn 0.4353 0.0000 0.9003
vn 0.5345 0.0000 0.8452
vn 0.6200 0.0000 0.7846
vn 0.6925 0.0000 0.7214
vn 0.7533 0.0000 0.6577
vn 0.8039 0.0000 0.5948
vn 0.8457 0.0000 0.5337
vn 0.8802 0.0000 0.4746
vn 0.9085 0.0000 0.4178
vn 0.9317 0.0000 0.3632
vn 0.9506 0.0000 0.3105
vn 0.9657 0.0000 0.2597
vn 0.9776 0.0000 0.2104
vn 0.9867 0.0000 0.1623
vn 0.9933 0.0000 0.1153
vn 0.9976 0.0000 0.0689
vn 0.9997 0.0000 0.0229
usemtl None
s off
f 1/1/1 2/2/1 46/3/1 45/4/1 44/5/1 43/6/1 42/7/1 41/8/1 40/9/1 39/10/1 38/11/1 37/12/1 36/13/1 35/14/1 34/15/1 33/16/1 32/17/1 31/18/1 30/19/1 29/20/1 28/21/1 27/22/1 26/23/1 25/24/1 24/25/1 23/26/1 22/27/1 21/28/1 20/29/1 19/30/1 18/31/1 17/32/1 16/33/1 15/34/1 14/35/1 13/36/1 12/37/1 11/38/1 10/39/1 9/40/1 8/41/1 7/42/1 6/43/1 5/44/1
f 88/45/1 87/46/1 86/47/1 85/48/1 84/49/1 83/50/1 82/51/1 81/52/1 80/53/1 79/54/1 78/55/1 77/56/1 76/57/1 75/58/1 74/59/1 73/60/1 72/61/1 71/62/1 70/63/1 69/64/1 68/65/1 67/66/1 66/67/1 65/68/1 64/69/1 63/70/1 62/71/1 61/72/1 60/73/1 59/74/1 58/75/1 57/76/1 56/77/1 55/78/1 54/79/1 53/80/1 52/81/1 51/82/1 50/83/1 49/84/1 48/85/1 47/86/1 46/3/1 2/2/1 4/87/1 3/88/1 1/1/1 5/44/1
f 89/89/2 93/90/2 94/91/2 95/92/2 96/93/2 97/94/2 98/95/2 99/96/2 100/97/2 101/98/2 102/99/2 103/100/2 104/101/2 105/102/2 106/103/2 107/104/2 108/105/2 109/106/2 110/107/2 111/108/2 112/109/2 113/110/2 114/111/2 115/112/2 116/113/2 117/114/2 118/115/2 119/116/2 120/117/2 121/118/2 122/119/2 123/120/2 124/121/2 125/122/2 126/123/2 127/124/2 128/125/2 129/126/2 130/127/2 131/128/2 132/129/2 133/130/2 134/131/2 90/132/2
f 176/133/2 93/90/2 89/89/2 91/134/2 92/135/2 90/132/2 134/131/2 135/136/2 136/137/2 137/138/2 138/139/2 139/140/2 140/141/2 141/142/2 142/143/2 143/144/2 144/145/2 145/146/2 146/147/2 147/148/2 148/149/2 149/150/2 150/151/2 151/152/2 152/153/2 153/154/2 154/155/2 155/156/2 156/157/2 157/158/2 158/159/2 159/160/2 160/161/2 161/162/2 162/163/2 163/164/2 164/165/2 165/166/2 166/167/2 167/168/2 168/169/2 169/170/2 170/171/2 171/172/2 172/173/2 173/174/2 174/175/2 175/176/2
f 1/1/3 3/88/3 91/134/3 89/89/3
f 2/2/4 1/1/4 89/89/4 90/132/4
f 4/87/5 2/2/5 90/132/5 92/135/5
f 3/88/6 4/87/6 92/135/6 91/134/6
f 5/44/7 6/43/7 94/91/7 93/90/7
f 6/43/8 7/42/8 95/92/8 94/91/8
f 7/42/9 8/41/9 96/93/9 95/92/9
f 8/41/10 9/40/10 97/94/10 96/93/10
f 9/40/11 10/39/11 98/95/11 97/94/11
f 10/39/12 11/38/12 99/96/12 98/95/12
f 11/38/13 12/37/13 100/97/13 99/96/13
f 12/37/14 13/36/14 101/98/14 100/97/14
f 13/36/15 14/35/15 102/99/15 101/98/15
f 14/35/16 15/34/16 103/100/16 102/99/16
f 15/34/17 16/33/17 104/101/17 103/100/17
f 16/33/18 17/32/18 105/102/18 104/101/18
f 17/32/19 18/31/19 106/103/19 105/102/19
f 18/31/20 19/30/20 107/104/20 106/103/20
f 19/30/21 20/29/21 108/105/21 107/104/21
f 20/29/22 21/28/22 109/106/22 108/105/22
f 21/28/23 22/27/23 110/107/23 109/106/23
f 22/27/24 23/26/24 111/108/24 110/107/24
f 23/26/25 24/25/25 112/109/25 111/108/25
f 24/25/26 25/24/26 113/110/26 112/109/26
f 25/24/6 26/23/6 114/111/6 113/110/6
f 26/23/27 27/22/27 115/112/27 114/111/27
f 27/22/28 28/21/28 116/113/28 115/112/28
f 28/21/29 29/20/29 117/114/29 116/113/29
f 29/20/30 30/19/30 118/115/30 117/114/30
f 30/19/31 31/18/31 119/116/31 118/115/31
f 31/18/32 32/17/32 120/117/32 119/116/32
f 32/17/33 33/16/33 121/118/33 120/117/33
f 33/16/34 34/15/34 122/119/34 121/118/34
f 34/15/35 35/14/35 123/120/35 122/119/35
f 35/14/36 36/13/36 124/121/36 123/120/36
f 36/13/37 37/12/37 125/122/37 124/121/37
f 37/12/38 38/11/38 126/123/38 125/122/38
f 38/11/39 39/10/39 127/124/39 126/123/39
f 39/10/40 40/9/40 128/125/40 127/124/40
f 40/9/41 41/8/41 129/126/41 128/125/41
f 41/8/42 42/7/42 130/127/42 129/126/42
f 42/7/43 43/6/43 131/128/43 130/127/43
f 43/6/44 44/5/44 132/129/44 131/128/44
f 44/5/45 45/4/45 133/130/45 132/129/45
f 45/4/46 46/3/46 134/131/46 133/130/46
f 46/3/3 47/86/3 135/136/3 134/131/3
f 47/86/47 48/85/47 136/137/47 135/136/47
f 48/85/48 49/84/48 137/138/48 136/137/48
f 49/84/49 50/83/49 138/139/49 137/138/49
f 50/83/50 51/82/50 139/140/50 138/139/50
f 51/82/51 52/81/51 140/141/51 139/140/51
f 52/81/52 53/80/52 141/142/52 140/141/52
f 53/80/53 54/79/53 142/143/53 141/142/53
f 54/79/54 55/78/54 143/144/54 142/143/54
f 55/78/55 56/77/55 144/145/55 143/144/55
f 56/77/56 57/76/56 145/146/56 144/145/56
f 57/76/57 58/75/57 146/147/57 145/146/57
f 58/75/58 59/74/58 147/148/58 146/147/58
f 59/74/59 60/73/59 148/149/59 147/148/59
f 60/73/60 61/72/60 149/150/60 148/149/60
f 61/72/61 62/71/61 150/151/61 149/150/61
f 62/71/62 63/70/62 151/152/62 150/151/62
f 63/70/63 64/69/63 152/153/63 151/152/63
f 64/69/64 65/68/64 153/154/64 152/153/64
f 65/68/65 66/67/65 154/155/65 153/154/65
f 66/67/66 67/66/66 155/156/66 154/155/66
f 67/66/4 68/65/4 156/157/4 155/156/4
f 68/65/67 69/64/67 157/158/67 156/157/67
f 69/64/68 70/63/68 158/159/68 157/158/68
f 70/63/69 71/62/69 159/160/69 158/159/69
f 71/62/70 72/61/70 160/161/70 159/160/70
f 72/61/71 73/60/71 161/162/71 160/161/71
f 73/60/72 74/59/72 162/163/72 161/162/72
f 74/59/73 75/58/73 163/164/73 162/163/73
f 75/58/74 76/57/74 164/165/74 163/164/74
f 76/57/75 77/56/75 165/166/75 164/165/75
f 77/56/76 78/55/76 166/167/76 165/166/76
f 78/55/77 79/54/77 167/168/77 166/167/77
f 79/54/78 80/53/78 168/169/78 167/168/78
f 80/53/79 81/52/79 169/170/79 168/169/79
f 81/52/80 82/51/80 170/171/80 169/170/80
f 82/51/81 83/50/81 171/172/81 170/171/81
f 83/50/82 84/49/82 172/173/82 171/172/82
f 84/49/83 85/48/83 173/174/83 172/173/83
f 85/48/84 86/47/84 174/175/84 173/174/84
f 86/47/85 87/46/85 175/176/85 174/175/85
f 87/46/86 88/45/86 176/133/86 175/176/86
f 88/45/5 5/44/5 93/90/5 176/133/5
