# Blender v2.80 (sub 45) OBJ File: 'Lab Furniture & Equipment.blend'
# www.blender.org
mtllib Door.mtl
o Door_Plane.009
v 0.000000 -3.500000 0.050000
v 3.600000 -3.500000 0.050000
v 0.000000 3.500000 0.050000
v 3.600000 3.500000 0.050000
v 2.987719 2.802011 0.050000
v 2.400000 0.429930 0.050000
v 2.400000 0.202011 0.050000
v 2.999999 0.202011 0.050000
v 2.999999 2.802012 0.050000
v 2.400000 2.802012 0.050000
v 0.000000 -3.500000 -0.050000
v 3.600000 -3.500000 -0.050000
v 0.000000 3.500000 -0.050000
v 3.600000 3.500000 -0.050000
v 2.987719 2.802011 -0.050000
v 2.400000 0.429930 -0.050000
v 2.400000 0.202011 -0.050000
v 2.999999 0.202011 -0.050000
v 2.999999 2.802012 -0.050000
v 2.400000 2.802012 -0.050000
vt 0.000000 0.000000
vt 1.000000 0.000000
vt 1.000000 1.000000
vt 0.829922 0.900287
vt 0.833333 0.900287
vt 0.833333 0.528859
vt 0.666667 0.528859
vt 0.666667 0.561419
vt 0.000000 1.000000
vt 0.666667 0.900287
vt 0.000000 0.000000
vt 0.000000 1.000000
vt 0.666667 0.561419
vt 0.666667 0.528859
vt 0.833333 0.528859
vt 0.833333 0.900287
vt 0.829922 0.900287
vt 1.000000 1.000000
vt 1.000000 0.000000
vt 0.666667 0.900287
vn 0.0000 -0.0000 1.0000
vn 0.0000 0.0000 -1.0000
vn -1.0000 -0.0000 0.0000
vn 0.0000 -1.0000 0.0000
vn 1.0000 0.0000 0.0000
vn 0.0000 1.0000 0.0000
vn 0.0001 -1.0000 0.0000
usemtl None
s off
f 1/1/1 2/2/1 4/3/1 5/4/1 9/5/1 8/6/1 7/7/1 6/8/1 3/9/1
f 3/9/1 6/8/1 10/10/1 5/4/1 4/3/1
f 11/11/2 13/12/2 16/13/2 17/14/2 18/15/2 19/16/2 15/17/2 14/18/2 12/19/2
f 13/12/2 14/18/2 15/17/2 20/20/2 16/13/2
f 1/1/3 3/9/3 13/12/3 11/11/3
f 2/2/4 1/1/4 11/11/4 12/19/4
f 4/3/5 2/2/5 12/19/5 14/18/5
f 3/9/6 4/3/6 14/18/6 13/12/6
f 7/7/6 8/6/6 18/15/6 17/14/6
f 8/6/3 9/5/3 19/16/3 18/15/3
f 9/5/7 5/4/7 15/17/7 19/16/7
f 6/8/5 7/7/5 17/14/5 16/13/5
f 5/4/4 10/10/4 20/20/4 15/17/4
f 10/10/5 6/8/5 16/13/5 20/20/5
