# Blender v2.80 (sub 45) OBJ File: 'Lab Furniture & Equipment.blend'
# www.blender.org
mtllib Wall.mtl
o Wall_Plane.001
v -12.500000 0.000000 -0.000000
v 12.500000 0.000000 -0.000000
v -12.500000 10.000000 0.000000
v 12.500000 10.000000 0.000000
v -4.500000 6.999999 0.000000
v -7.500000 6.999999 0.000000
v -4.200001 0.000000 -0.000000
v -7.800002 0.000000 -0.000000
v -4.200001 7.000000 0.000000
v -7.800001 7.000000 0.000000
vt 0.000000 0.000000
vt 0.188000 0.000000
vt 0.188000 0.700000
vt 0.200000 0.700000
vt 0.320000 0.700000
vt 0.332000 0.700000
vt 0.332000 0.000000
vt 1.000000 0.000000
vt 1.000000 1.000000
vt 0.000000 1.000000
vn 0.0000 -0.0000 1.0000
usemtl None
s off
f 1/1/1 8/2/1 10/3/1 6/4/1 5/5/1 9/6/1 7/7/1 2/8/1 4/9/1 3/10/1
